<?xml version="1.0" encoding="UTF-8"?>
<svg version="1.1" viewBox="0 0 256 256" xmlns="http://www.w3.org/2000/svg">
 <g transform="translate(0 -796.36)">
  <rect y="796.36" width="256" height="256" fill="#a40"/>
  <path transform="translate(0 796.36)" d="m129.78 209.72c-42.895 0-77.679 20.844-78.156 46.656h156.34c-0.47753-25.812-35.293-46.656-78.188-46.656z" fill="#fff"/>
  <path transform="matrix(.25945 0 0 .15654 276.68 789.24)" d="m-271.43 782.36c0 166.47-134.95 301.43-301.43 301.43-166.47 0-301.43-134.95-301.43-301.43 0-166.47 134.95-301.43 301.43-301.43 166.47 0 301.43 134.95 301.43 301.43z" fill="#fff"/>
  <path transform="translate(0 796.36)" d="m154.75 76.625c1.2053 0.10246 2.4055 0.33636 3.6562 0.65625 12.68 3.243 23.513 17.23 26.531 34.25 0.88743 5.0044 0.96211 12.621 0.15625 17.125-2.045 11.43-7.9628 19.805-16.219 23-3.3798 1.3078-8.3661 1.6622-11.969 0.84375-8.5928-1.952-17.122-9.5407-22.312-19.875-2.5237-5.0251-5.0169-13.237-5-16.438-0.37568-2.308-0.41722-2.5656-0.625-5.9062-0.31853-1.1851 0.16026-7.4866 1.1562-11.781 2.1703-9.358 7.264-16.507 14.094-19.812 3.4599-1.6747 6.9155-2.3699 10.531-2.0625z" fill="#010101"/>
  <path d="m122.5 833.36c-16.376 0.26635-32.324 5.1695-44.969 13.938-18.081 12.538-30.047 31.807-35.094 56.594-0.23239 1.1413-0.52669 2.7079-0.6875 3.4688-0.16081 0.76087-0.48702 2.6956-0.6875 4.3125s-0.54308 4.2894-0.78125 5.9062c-0.55935 3.7949-0.56337 17.65 0 21.094 1.724 10.538 3.5954 18.232 7.5625 31.125 1.2058 3.9189 1.4858 4.8576 2.125 7.25 0.17788 0.66578 0.82243 3 1.4062 5.1875 3.757 14.077 4.0859 23.778 1.1875 32.969-2.1219 6.7282-5.4763 11.884-12.094 18.469-4.7421 4.7322-10.099 11.871-13.594 19.062h31.938c0.8328-1.9262 1.5013-3.9432 2.25-5.4375 4.7926-9.5645 9.6542-16.287 16.531-22.875 9.0531-8.673 19.246-13.874 31.406-16.062 3.3396-0.6012 13.793-0.7073 17.094-0.1563 18.003 3.0055 33.389 12.608 45.688 28.5 3.6289 4.6892 6.8942 10.205 9.8438 16.031h67.219c-2.2655-4.9103-6.119-11.064-10.771-17.687-2.5547-3.6372-5.9454-9.1254-7.7914-11.313-5.8636-6.9482-10.801-10.306-14.353-15.008-7.3813-6.8235-6.504-8.2393-6.3343-17.835 3.0732-15.287 3.95-43.816 3.073-66.792 0.3231-6.7074-0.042-10.195-0.38554-13.74-1.2136-12.524-3.5887-20.041-8.5-29.843-3.8895-7.7627-8.7846-14.456-15.219-20.875-7.1965-7.1798-14.173-12.166-23.531-16.781-11.4-5.6231-22.254-8.4802-35.5-9.3438-2.3488-0.15313-4.6918-0.1943-7.0312-0.15625z" fill="#010101"/>
  <path transform="translate(0 796.36)" d="m129.81 48.438s-4.3892 108.25-1.625 153.75c15.254 2.5467 22.236 6.0028 37.438 18.406 7.9553 6.4907 22.714 23.267 28.406 35.781h42.875c-3.9973-6.1677-11.908-18.09-13.812-20.344-2.4307-2.8766-5.717-6.7402-7.2812-8.5938-4.9684-5.8874-12.397-14.266-15.406-18.25-3.186-3.1468-2.8656-5.3639-2.75-9.5938 0.28544-11.32 1.3909-55.606 2.2812-74.094 0.27372-5.6834 0.2911-7.996 0-11-1.0283-10.612-3.0573-17.944-7.2188-26.25-3.2956-6.5775-7.4232-12.248-12.875-17.688-6.0978-6.0837-12.008-10.308-19.938-14.219-9.6599-4.7646-30.094-7.9062-30.094-7.9062z" fill="#333"/>
  <path d="m121.78 946.96-1.1889 1.2645c-2.3622 2.5044-7.4533 4.2119-15.283 5.1122-8.5989 0.98881-19.533 0.45322-24.772-1.2105-2.5912-0.82289-3.2936-0.68155-3.9125 0.81061-1.954 4.7107 2.1311 13.63 11.738 25.626 6.0919 7.607 15.149 16.753 20.816 21.022 2.2056 1.6614 4.8956 2.9741 7.4035 3.6098 2.0405 0.5173 14.125 0.4159 16.979-0.1405 0.95111-0.1854 2.7224-0.5223 3.9341-0.7565 6.5772-1.2716 12.121-4.456 21.832-12.527 8.7735-7.2909 19.531-19.293 22.405-24.999 2.1013-4.172 2.9703-10.459 1.7077-12.386-0.7236-1.1044-1.0272-1.1212-3.8044-0.23778-2.6921 0.85641-11.866 1.7293-18.082 1.7293-2.5731 0-6.7283-0.24127-9.2408-0.5404-7.3188-0.87138-11.529-2.371-13.996-4.9933l-1.297-1.3834h-15.239zm3.1452 2.7668c1.9074 0 2.9748 2.4811 2.2372 5.2203-1.2645 4.696-4.3261 6.9668-6.193 4.5934-2.0449-2.5996 0.86035-9.8137 3.9557-9.8137zm7.2414 0c2.1254 0 4.6799 4.0426 4.6799 7.4035 0 2.8956-2.1998 4.2302-4.28 2.5939-1.7137-1.348-3.2224-5.3388-2.8209-7.4792 0.27323-1.4564 1.2966-2.5183 2.421-2.5183z" fill="#efcd00"/>
  <path d="m103.6 888.3c3.003-0.25528 5.873 0.3221 8.7466 1.713 5.6647 2.7419 9.8831 8.6835 11.679 16.429 1.2179 6.0776 0.79613 14.688 0.31145 16.144-0.65113 4.9544-3.4712 12.062-6.6183 16.689-4.2927 6.3107-10.319 10.831-16.066 12.043-5.1253 1.0805-9.9357 0.0238-14.067-3.0885-6.2191-4.6851-9.6527-13.059-9.655-23.489-0.0029-16.936 9.8856-32.641 22.606-35.895 1.0388-0.26567 2.0616-0.45994 3.0626-0.54503z" fill="#fff"/>
  <path d="m153.15 888.3c-3.003-0.25528-5.873 0.3221-8.7466 1.713-5.6647 2.7419-9.8831 8.6835-11.679 16.429-1.2179 6.0776-0.79613 14.688-0.31145 16.144 0.65113 4.9544 3.4712 12.062 6.6183 16.689 4.2927 6.3107 10.319 10.831 16.066 12.043 5.1253 1.0805 9.9357 0.0238 14.067-3.0885 6.2191-4.6851 9.6527-13.059 9.655-23.489 3e-3 -16.936-9.8856-32.641-22.606-35.895-1.0388-0.26567-2.0616-0.45994-3.0626-0.54503z" fill="#fff"/>
  <g transform="translate(10.908 9.3584)">
   <path transform="matrix(.40179 0 0 .40179 273.79 761.72)" d="m-407.31 390.67c0 21.445-15.965 38.83-35.66 38.83s-35.66-17.385-35.66-38.83 15.965-38.83 35.66-38.83 35.66 17.385 35.66 38.83z"/>
   <path transform="matrix(.17606 0 0 .17606 178.5 843.8)" d="m-407.31 390.67c0 21.445-15.965 38.83-35.66 38.83s-35.66-17.385-35.66-38.83 15.965-38.83 35.66-38.83 35.66 17.385 35.66 38.83z" fill="#fff"/>
  </g>
  <g transform="translate(-10.286 8.5272)">
   <path transform="matrix(.40179 0 0 .40179 337.97 761.83)" d="m-407.31 390.67c0 21.445-15.965 38.83-35.66 38.83s-35.66-17.385-35.66-38.83 15.965-38.83 35.66-38.83 35.66 17.385 35.66 38.83z"/>
   <path transform="matrix(.17606 0 0 .17606 242.91 843.8)" d="m-407.31 390.67c0 21.445-15.965 38.83-35.66 38.83s-35.66-17.385-35.66-38.83 15.965-38.83 35.66-38.83 35.66 17.385 35.66 38.83z" fill="#fff"/>
  </g>
  <path d="m84.326 878.86c3.1907-1.9815 6.7044-2.9631 10.682-3.0433 7.8412-0.15803 15.885 4.0551 22.26 11.641 4.789 6.0608 9.1889 15.861 9.4739 17.752-26.791 4.0273-30.288 3.9498-50.318 28.632-9.5793-18.806-7.4781-41.839 4.809-52.645 1.0034-0.8824 2.0294-1.6765 3.0929-2.337z" fill="#333"/>
  <path d="m171.33 879.27c-3.1906-1.9815-6.7044-2.9631-10.682-3.0433-7.8412-0.15803-15.885 4.0551-22.26 11.641-4.789 6.0608-9.1889 15.861-9.4739 17.752 26.791 4.0273 30.288 3.9498 50.318 28.632 9.5793-18.806 7.4781-41.839-4.809-52.645-1.0034-0.8824-2.0294-1.6765-3.093-2.337z" fill="#010101"/>
  <g transform="translate(-.41558 -4.1558)">
   <path d="m167.6 990.84c0 9.3114-3.7785 16.868-8.4342 16.868s-8.4342-7.557-8.4342-16.868 6.9612-20.051 8.7525-39.784c0.35901 19.892 8.1159 30.473 8.1159 39.784z" fill="#0ff" stroke="#0ff" stroke-linejoin="round" stroke-width=".67951"/>
   <path d="m165.03 985.6c0 4.3106-1.7974 8.3876-3.9528 8.3876s-3.9046-3.4985-3.9046-7.8091 2.9816-8.5111 3.8108-17.646c2.0946 11.378 4.0947 11.745 4.0465 17.068z" fill="#fff"/>
  </g>
  <path d="m139.03 939.27c4.2927 6.3107 10.319 10.831 16.066 12.043 5.1253 1.0805 9.9357 0.0238 14.067-3.0885 3.1096-2.3426 5.5227-5.6072 7.1588-9.59-9.5386 5.4176-22.214 5.1882-37.292 0.63578z" fill="#0ff"/>
 </g>
</svg>
